<svg width="233" height="80" viewBox="0 0 233 80" fill="none" xmlns="http://www.w3.org/2000/svg">
<g clip-path="url(#clip0_50_4011)">
<path d="M64.7166 30.6771V23.4818H66.3905V30.6771H64.7166ZM65.9007 27.7794V26.3928H68.4375V27.7794H65.9007ZM68.6959 27.2661L67.1478 27.0817L69.5071 23.484H71.2844L68.6959 27.2661ZM69.4441 30.6793L67.1792 27.215L68.5409 26.4039L71.3563 30.6793H69.4441Z" fill="white"/>
<path d="M74.5583 30.7593C73.9628 30.7593 73.4348 30.6371 72.9741 30.3882C72.5135 30.1415 72.1495 29.8038 71.8821 29.3749C71.6147 28.946 71.4822 28.4594 71.4822 27.9105C71.4822 27.3617 71.6147 26.8639 71.8821 26.435C72.1495 26.0062 72.5135 25.6706 72.9741 25.4284C73.4348 25.1862 73.9628 25.064 74.5583 25.064C75.1537 25.064 75.6727 25.1862 76.1379 25.4284C76.603 25.6706 76.9647 26.0062 77.2299 26.4306C77.495 26.855 77.6253 27.3483 77.6253 27.9105C77.6253 28.4727 77.4928 28.9483 77.2299 29.3749C76.967 29.8015 76.603 30.1415 76.1379 30.3882C75.6727 30.6348 75.147 30.7593 74.5583 30.7593ZM74.5583 29.4438C74.8279 29.4438 75.0706 29.3816 75.2863 29.2593C75.502 29.1349 75.6705 28.9594 75.7963 28.7305C75.9221 28.5016 75.9828 28.2283 75.9828 27.9127C75.9828 27.5972 75.9199 27.3172 75.7963 27.0906C75.6727 26.8639 75.502 26.6906 75.2863 26.5661C75.0706 26.4417 74.8279 26.3817 74.5583 26.3817C74.2886 26.3817 74.0459 26.4439 73.8302 26.5661C73.6145 26.6883 73.4438 26.8639 73.3157 27.0906C73.1876 27.3172 73.1224 27.5905 73.1224 27.9127C73.1224 28.2349 73.1854 28.4994 73.3157 28.7305C73.4438 28.9594 73.6145 29.1371 73.8302 29.2593C74.0459 29.3816 74.2886 29.4438 74.5583 29.4438Z" fill="white"/>
<path d="M78.7375 30.6771V25.1484H80.3486V27.3061H82.7798V25.1484H84.3999V30.6771H82.7798V28.6105H80.3486V30.6771H78.7375Z" fill="white"/>
<path d="M85.9502 30.6771V25.1484H87.5725V30.6771H85.9502ZM87.0939 28.5794V27.295H89.0487V28.5794H87.0939ZM89.5161 28.0972L87.9994 27.9327L89.9633 25.1462H91.6889L89.5161 28.0972ZM89.9116 30.6771L88.0399 28.0572L89.3611 27.2861L91.8237 30.6771H89.9116Z" fill="white"/>
<path d="M93.1719 32.7525C92.8821 32.7525 92.5922 32.7081 92.3091 32.6192C92.026 32.5303 91.7923 32.4059 91.6125 32.2481L92.2057 31.1082C92.3293 31.217 92.4731 31.3037 92.6372 31.3659C92.7989 31.4281 92.9607 31.4593 93.1202 31.4593C93.3494 31.4593 93.5314 31.4059 93.6663 31.2993C93.8011 31.1926 93.9247 31.0171 94.0348 30.7704L94.3246 30.0926L94.4504 29.9171L96.457 25.1484H98.0164L95.4908 31.0171C95.311 31.4615 95.1043 31.8126 94.8729 32.0659C94.6414 32.3192 94.3853 32.497 94.1044 32.6014C93.8235 32.7059 93.5135 32.7548 93.1742 32.7548L93.1719 32.7525ZM94.1269 30.8926L91.6328 25.1462H93.3068L95.2391 29.7704L94.1269 30.8904V30.8926Z" fill="white"/>
<path d="M98.785 32.6725V25.1484H100.333V26.2795L100.302 27.9239L100.405 29.5571V32.6725H98.7827H98.785ZM102.09 30.7615C101.618 30.7615 101.207 30.6593 100.854 30.4526C100.502 30.2482 100.225 29.9327 100.028 29.5127C99.8298 29.0927 99.7309 28.5594 99.7309 27.915C99.7309 27.2705 99.8253 26.7306 100.012 26.3106C100.198 25.8928 100.47 25.5817 100.823 25.3751C101.176 25.1706 101.598 25.0662 102.09 25.0662C102.616 25.0662 103.09 25.184 103.508 25.4217C103.928 25.6573 104.259 25.9884 104.506 26.4128C104.751 26.8372 104.874 27.3372 104.874 27.9127C104.874 28.4883 104.751 28.9994 104.506 29.4238C104.259 29.8482 103.926 30.1771 103.508 30.4104C103.088 30.6437 102.616 30.7593 102.09 30.7593V30.7615ZM101.809 29.446C102.079 29.446 102.319 29.3838 102.531 29.2616C102.742 29.1371 102.913 28.9616 103.041 28.7327C103.169 28.5038 103.234 28.2305 103.234 27.915C103.234 27.5994 103.169 27.3194 103.041 27.0928C102.913 26.8661 102.742 26.6928 102.531 26.5684C102.319 26.4439 102.079 26.3839 101.809 26.3839C101.54 26.3839 101.297 26.4461 101.081 26.5684C100.866 26.6906 100.697 26.8661 100.571 27.0928C100.448 27.3194 100.385 27.5928 100.385 27.915C100.385 28.2372 100.448 28.5016 100.571 28.7327C100.697 28.9616 100.866 29.1394 101.081 29.2616C101.297 29.3838 101.54 29.446 101.809 29.446Z" fill="white"/>
<path d="M108.669 30.7593C108.067 30.7593 107.53 30.6371 107.058 30.3949C106.586 30.1526 106.218 29.8149 105.95 29.3816C105.683 28.9505 105.551 28.4594 105.551 27.9127C105.551 27.3661 105.683 26.8661 105.95 26.4372C106.218 26.0084 106.586 25.6728 107.058 25.4306C107.53 25.1884 108.067 25.0662 108.669 25.0662C109.271 25.0662 109.77 25.1884 110.208 25.4306C110.647 25.6728 110.968 26.0217 111.175 26.4728L109.916 27.1417C109.77 26.8817 109.588 26.6883 109.37 26.5661C109.152 26.4417 108.914 26.3817 108.658 26.3817C108.382 26.3817 108.132 26.4439 107.91 26.5661C107.687 26.6883 107.512 26.8639 107.384 27.0906C107.256 27.3172 107.191 27.5905 107.191 27.9127C107.191 28.235 107.254 28.5083 107.384 28.7349C107.512 28.9616 107.687 29.1349 107.91 29.2594C108.132 29.3816 108.382 29.4438 108.658 29.4438C108.914 29.4438 109.152 29.3838 109.37 29.2638C109.588 29.1438 109.77 28.9505 109.916 28.6838L111.175 29.3616C110.968 29.806 110.644 30.1504 110.208 30.3949C109.773 30.6393 109.26 30.7593 108.669 30.7593Z" fill="white"/>
<path d="M115.237 30.7904C115.114 30.7904 114.981 30.7793 114.842 30.7593C114.702 30.7393 114.554 30.7082 114.395 30.666L114.478 29.3505C114.52 29.3571 114.561 29.3616 114.604 29.366C114.644 29.3705 114.682 29.3705 114.718 29.3705C114.911 29.3705 115.064 29.3149 115.176 29.206C115.287 29.0971 115.37 28.9483 115.426 28.7594C115.482 28.5705 115.52 28.3572 115.545 28.1172C115.57 27.8772 115.588 27.6283 115.601 27.3661L115.684 25.1462H120.466V30.6748H118.843V26.0706L119.208 26.4617H116.754L117.098 26.0506L117.026 27.4372C117.005 27.9305 116.965 28.3838 116.907 28.7949C116.848 29.206 116.752 29.5616 116.621 29.8593C116.489 30.1571 116.313 30.386 116.091 30.5482C115.869 30.7082 115.585 30.7904 115.239 30.7904H115.237Z" fill="white"/>
<path d="M122.782 32.7525C122.492 32.7525 122.203 32.7081 121.919 32.6192C121.636 32.5303 121.403 32.4059 121.223 32.2481L121.816 31.1082C121.94 31.217 122.083 31.3037 122.248 31.3659C122.409 31.4281 122.571 31.4593 122.731 31.4593C122.96 31.4593 123.142 31.4059 123.277 31.2993C123.411 31.1926 123.535 31.0171 123.645 30.7704L123.935 30.0926L124.061 29.9171L126.067 25.1484H127.627L125.101 31.0171C124.921 31.4615 124.715 31.8126 124.483 32.0659C124.252 32.3192 123.996 32.497 123.715 32.6014C123.434 32.7059 123.124 32.7548 122.785 32.7548L122.782 32.7525ZM123.737 30.8926L121.243 25.1462H122.917L124.849 29.7704L123.737 30.8904V30.8926Z" fill="white"/>
<path d="M130.253 28.9705C129.519 28.9705 128.955 28.8038 128.559 28.4727C128.164 28.1394 127.966 27.6105 127.966 26.8839V25.1462H129.588V26.7795C129.588 27.1217 129.678 27.3661 129.858 27.515C130.038 27.6639 130.292 27.735 130.617 27.735C130.853 27.735 131.08 27.7083 131.298 27.6528C131.516 27.5972 131.725 27.5194 131.927 27.4172V28.5572C131.698 28.6794 131.447 28.7794 131.168 28.8549C130.889 28.9305 130.586 28.9683 130.253 28.9683V28.9705ZM131.813 30.6771V25.1484H133.433V30.6771H131.813Z" fill="white"/>
<path d="M134.992 30.6771V25.1484H136.603V29.7327L136.239 29.3616H138.805L138.452 29.7327V25.1484H140.075V29.7327L139.7 29.3616H142.277L141.913 29.7327V25.1484H143.524V30.6771H134.992Z" fill="white"/>
<path d="M145.085 30.6771V25.1484H146.697V28.4372L149.42 25.1484H150.905V30.6771H149.294V27.3883L146.582 30.6771H145.085Z" fill="white"/>
<path d="M151.716 30.6771L154.222 27.4283L154.19 28.3127L151.79 25.1462H153.608L155.125 27.2128L154.44 27.2328L156.008 25.1462H157.734L155.323 28.2816V27.4194L157.817 30.6771H155.977L154.386 28.4772L155.062 28.5705L153.482 30.6771H151.716Z" fill="white"/>
<path d="M164.333 30.8015C163.875 30.8015 163.461 30.7348 163.086 30.6015C162.711 30.4682 162.387 30.2593 162.113 29.9749C161.839 29.6904 161.628 29.326 161.479 28.8794C161.331 28.4349 161.257 27.9039 161.257 27.2861C161.257 26.8483 161.295 26.4461 161.371 26.0839C161.448 25.7217 161.562 25.3906 161.715 25.0929C161.868 24.7951 162.063 24.5307 162.302 24.3018C162.54 24.0729 162.821 23.8796 163.144 23.7263C163.466 23.5729 163.832 23.4529 164.241 23.3707L166.901 22.8463L167.119 24.224L164.771 24.6862C164.632 24.7129 164.474 24.7507 164.299 24.7951C164.122 24.8395 163.946 24.9062 163.769 24.9951C163.591 25.084 163.43 25.2084 163.281 25.3706C163.133 25.5328 163.012 25.7417 162.922 25.9973C162.832 26.255 162.787 26.5706 162.787 26.9483C162.787 27.0639 162.792 27.1528 162.803 27.215C162.814 27.2772 162.823 27.3417 162.834 27.4105C162.845 27.4794 162.85 27.5861 162.85 27.7283L162.331 27.2239C162.484 26.9017 162.679 26.6284 162.917 26.4017C163.156 26.175 163.434 26.0017 163.749 25.8817C164.063 25.7617 164.416 25.7017 164.805 25.7017C165.331 25.7017 165.793 25.8062 166.191 26.015C166.589 26.2239 166.899 26.5172 167.121 26.8928C167.344 27.2705 167.454 27.6972 167.454 28.1772C167.454 28.6972 167.321 29.1549 167.058 29.5482C166.796 29.9415 166.429 30.2482 165.962 30.4682C165.495 30.6882 164.951 30.7971 164.335 30.7971L164.333 30.8015ZM164.416 29.5571C164.686 29.5571 164.926 29.4971 165.133 29.3771C165.342 29.2571 165.501 29.0971 165.616 28.8949C165.731 28.6927 165.787 28.4661 165.787 28.2105C165.787 27.955 165.731 27.7439 165.616 27.5528C165.501 27.3617 165.34 27.2105 165.133 27.0994C164.926 26.9906 164.683 26.935 164.405 26.935C164.126 26.935 163.893 26.9883 163.677 27.095C163.461 27.2017 163.295 27.3461 163.178 27.5328C163.061 27.7172 163 27.9327 163 28.1794C163 28.4261 163.061 28.6638 163.182 28.8727C163.304 29.0816 163.47 29.2482 163.681 29.3705C163.893 29.4927 164.137 29.5549 164.414 29.5549L164.416 29.5571Z" fill="white"/>
<path d="M168.541 32.6725V25.1484H170.089V26.2795L170.058 27.9239L170.161 29.5571V32.6725H168.539H168.541ZM171.847 30.7615C171.375 30.7615 170.964 30.6593 170.611 30.4526C170.258 30.2482 169.982 29.9327 169.784 29.5127C169.586 29.0927 169.487 28.5594 169.487 27.915C169.487 27.2705 169.582 26.7306 169.768 26.3106C169.955 25.8928 170.227 25.5817 170.579 25.3751C170.932 25.1706 171.354 25.0662 171.847 25.0662C172.372 25.0662 172.846 25.184 173.264 25.4217C173.685 25.6573 174.015 25.9884 174.262 26.4128C174.507 26.8372 174.631 27.3372 174.631 27.9127C174.631 28.4883 174.507 28.9994 174.262 29.4238C174.015 29.8482 173.682 30.1771 173.264 30.4104C172.844 30.6437 172.372 30.7593 171.847 30.7593V30.7615ZM171.566 29.446C171.835 29.446 172.076 29.3838 172.287 29.2616C172.498 29.1371 172.669 28.9616 172.797 28.7327C172.925 28.5038 172.99 28.2305 172.99 27.915C172.99 27.5994 172.925 27.3194 172.797 27.0928C172.669 26.8661 172.498 26.6928 172.287 26.5684C172.076 26.4439 171.835 26.3839 171.566 26.3839C171.296 26.3839 171.053 26.4461 170.838 26.5684C170.622 26.6906 170.453 26.8661 170.328 27.0928C170.204 27.3194 170.141 27.5928 170.141 27.915C170.141 28.2372 170.204 28.5016 170.328 28.7327C170.453 28.9616 170.622 29.1394 170.838 29.2616C171.053 29.3838 171.296 29.446 171.566 29.446Z" fill="white"/>
<path d="M178.498 30.7593C177.859 30.7593 177.3 30.6371 176.819 30.3882C176.338 30.1415 175.965 29.8038 175.702 29.3749C175.439 28.946 175.307 28.4594 175.307 27.9105C175.307 27.3617 175.437 26.8639 175.696 26.435C175.954 26.0062 176.311 25.6706 176.761 25.4284C177.21 25.1862 177.72 25.064 178.289 25.064C178.857 25.064 179.329 25.1795 179.769 25.4084C180.21 25.6373 180.558 25.9662 180.814 26.395C181.07 26.8239 181.198 27.335 181.198 27.9327C181.198 27.995 181.194 28.0638 181.187 28.1438C181.18 28.2216 181.174 28.2972 181.167 28.3638H176.626V27.4283H180.315L179.691 27.7061C179.691 27.4194 179.632 27.1683 179.513 26.955C179.394 26.7417 179.232 26.5772 179.026 26.4572C178.819 26.3373 178.576 26.2773 178.298 26.2773C178.019 26.2773 177.776 26.3373 177.565 26.4572C177.354 26.5772 177.19 26.7439 177.071 26.9617C176.952 27.1794 176.893 27.4328 176.893 27.7283V27.975C176.893 28.2772 176.961 28.5416 177.095 28.7705C177.23 28.9994 177.421 29.1749 177.666 29.2949C177.911 29.4149 178.201 29.4749 178.534 29.4749C178.832 29.4749 179.093 29.4305 179.318 29.3416C179.542 29.2527 179.749 29.1194 179.936 28.9416L180.798 29.866C180.542 30.1526 180.219 30.3749 179.832 30.5282C179.444 30.6815 178.996 30.7593 178.491 30.7593H178.498Z" fill="white"/>
<path d="M182.446 30.6771V25.1484H184.057V27.3061H186.488V25.1484H188.108V30.6771H186.488V28.6105H184.057V30.6771H182.446Z" fill="white"/>
<path d="M188.984 31.8704V29.3616H195.927V31.8704H194.42V30.6771H190.492V31.8704H188.984ZM190.773 29.5882L189.173 29.3616C189.373 29.3616 189.537 29.3016 189.66 29.1816C189.786 29.0616 189.883 28.8927 189.95 28.6772C190.02 28.4616 190.072 28.215 190.105 27.9372C190.139 27.6594 190.164 27.3661 190.177 27.0572L190.249 25.1462H195.123V29.9571H193.5V26.4617H191.671L191.64 27.1706C191.627 27.4661 191.609 27.7461 191.588 28.0127C191.568 28.2794 191.528 28.5216 191.469 28.7372C191.411 28.9527 191.325 29.1349 191.215 29.2816C191.105 29.4282 190.955 29.5305 190.768 29.5838L190.773 29.5882Z" fill="white"/>
<path d="M199.563 30.7593C198.967 30.7593 198.439 30.6371 197.979 30.3882C197.518 30.1415 197.154 29.8038 196.887 29.3749C196.619 28.946 196.487 28.4594 196.487 27.9105C196.487 27.3617 196.619 26.8639 196.887 26.435C197.154 26.0062 197.518 25.6706 197.979 25.4284C198.439 25.1862 198.967 25.064 199.563 25.064C200.158 25.064 200.677 25.1862 201.142 25.4284C201.608 25.6706 201.969 26.0062 202.235 26.4306C202.5 26.855 202.63 27.3483 202.63 27.9105C202.63 28.4727 202.497 28.9483 202.235 29.3749C201.972 29.8015 201.608 30.1415 201.142 30.3882C200.677 30.6348 200.152 30.7593 199.563 30.7593ZM199.563 29.4438C199.833 29.4438 200.075 29.3816 200.291 29.2593C200.507 29.1349 200.675 28.9594 200.801 28.7305C200.927 28.5016 200.987 28.2283 200.987 27.9127C200.987 27.5972 200.925 27.3172 200.801 27.0906C200.677 26.8639 200.507 26.6906 200.291 26.5661C200.075 26.4417 199.833 26.3817 199.563 26.3817C199.293 26.3817 199.051 26.4439 198.835 26.5661C198.619 26.6883 198.448 26.8639 198.32 27.0906C198.192 27.3172 198.127 27.5905 198.127 27.9127C198.127 28.2349 198.19 28.4994 198.32 28.7305C198.448 28.9594 198.619 29.1371 198.835 29.2593C199.051 29.3816 199.293 29.4438 199.563 29.4438Z" fill="white"/>
<path d="M203.742 30.6771V25.1484H206.6C207.299 25.1484 207.847 25.2729 208.243 25.524C208.638 25.7751 208.836 26.1262 208.836 26.5772C208.836 27.0283 208.65 27.3839 208.281 27.6416C207.913 27.8994 207.42 28.0261 206.812 28.0261L206.978 27.655C207.656 27.655 208.164 27.7772 208.501 28.0261C208.838 28.2727 209.005 28.6327 209.005 29.106C209.005 29.5793 208.818 29.9771 208.443 30.2571C208.068 30.5371 207.497 30.6793 206.728 30.6793H203.744L203.742 30.6771ZM205.227 27.4194H206.454C206.737 27.4194 206.951 27.3683 207.092 27.2661C207.234 27.1639 207.306 27.0172 207.306 26.8239C207.306 26.6306 207.234 26.4772 207.092 26.3817C206.951 26.2861 206.737 26.2373 206.454 26.2373H205.227V27.4194ZM205.227 29.5882H206.589C206.888 29.5882 207.11 29.5393 207.259 29.4393C207.407 29.3393 207.481 29.1882 207.481 28.9816C207.481 28.7749 207.411 28.6127 207.274 28.5149C207.135 28.4149 206.917 28.3661 206.621 28.3661H205.227V29.5882Z" fill="white"/>
<path d="M64.6133 43.0121V37.4834H69.0937V38.7989H65.8626L66.2266 38.4501V43.0143H64.6155L64.6133 43.0121Z" fill="white"/>
<path d="M71.5967 43.0943C71.1608 43.0943 70.7856 43.021 70.4733 42.8743C70.1609 42.7277 69.9228 42.5254 69.7565 42.2721C69.5902 42.0188 69.5071 41.7344 69.5071 41.4188C69.5071 41.1033 69.588 40.8011 69.752 40.5544C69.9138 40.3078 70.1722 40.1144 70.5272 39.9744C70.88 39.8345 71.3406 39.7633 71.9091 39.7633H73.3943V40.6989H72.0843C71.7023 40.6989 71.4417 40.7611 71.3001 40.8833C71.1586 41.0055 71.0867 41.1611 71.0867 41.3455C71.0867 41.5499 71.1676 41.7144 71.3316 41.8344C71.4934 41.9544 71.7181 42.0144 72.0012 42.0144C72.2843 42.0144 72.5135 41.9499 72.7292 41.8233C72.9449 41.6966 73.1 41.5099 73.1966 41.2633L73.446 42.0032C73.3291 42.3588 73.1134 42.6299 72.8011 42.8143C72.4888 42.9988 72.0866 43.0921 71.5945 43.0921L71.5967 43.0943ZM73.2999 43.0121V41.9321L73.1966 41.6966V39.7633C73.1966 39.4211 73.091 39.1545 72.8798 38.9612C72.6685 38.7678 72.345 38.6745 71.9091 38.6745C71.6102 38.6745 71.3181 38.7212 71.0305 38.8123C70.7429 38.9034 70.498 39.03 70.298 39.1878L69.716 38.0679C70.0216 37.8545 70.3879 37.6901 70.8171 37.5745C71.2462 37.459 71.6821 37.399 72.127 37.399C72.9786 37.399 73.6415 37.599 74.1111 37.9945C74.5829 38.3923 74.8166 39.0123 74.8166 39.8545V43.0099H73.2999V43.0121Z" fill="white"/>
<path d="M78.8927 43.0943C78.2905 43.0943 77.7535 42.9721 77.2816 42.7299C76.8098 42.4877 76.4413 42.1499 76.1739 41.7166C75.9065 41.2855 75.7739 40.7944 75.7739 40.2478C75.7739 39.7011 75.9065 39.2012 76.1739 38.7723C76.4413 38.3434 76.8098 38.0079 77.2816 37.7657C77.7535 37.5234 78.2905 37.4012 78.8927 37.4012C79.4949 37.4012 79.9937 37.5234 80.4318 37.7657C80.87 38.0079 81.1913 38.3567 81.398 38.8078L80.1397 39.4767C79.9937 39.2167 79.8117 39.0234 79.5937 38.9012C79.3758 38.7767 79.1376 38.7167 78.8815 38.7167C78.6051 38.7167 78.3557 38.7789 78.1332 38.9012C77.9108 39.0234 77.7355 39.1989 77.6074 39.4256C77.4794 39.6522 77.4142 39.9256 77.4142 40.2478C77.4142 40.57 77.4771 40.8433 77.6074 41.07C77.7355 41.2966 77.9108 41.4699 78.1332 41.5944C78.3557 41.7166 78.6051 41.7788 78.8815 41.7788C79.1376 41.7788 79.3758 41.7188 79.5937 41.5988C79.8117 41.4788 79.9937 41.2855 80.1397 41.0188L81.398 41.6966C81.1913 42.141 80.8678 42.4855 80.4318 42.7299C79.9959 42.9743 79.4836 43.0943 78.8927 43.0943Z" fill="white"/>
<path d="M83.5597 43.0121V38.4278L83.9237 38.7989H81.6677V37.4834H87.0627V38.7989H84.8067L85.1707 38.4278V43.0121H83.5597Z" fill="white"/>
<path d="M87.9141 45.0053V37.4812H89.4623V38.6123L89.4308 40.2567L89.5342 41.8899V45.0053H87.9119H87.9141ZM91.2194 43.0943C90.7475 43.0943 90.3363 42.9921 89.9836 42.7854C89.6308 42.581 89.3544 42.2655 89.1567 41.8455C88.9589 41.4255 88.8601 40.8922 88.8601 40.2478C88.8601 39.6034 88.9545 39.0634 89.1409 38.6434C89.3274 38.2256 89.5993 37.9145 89.9521 37.7079C90.3049 37.5034 90.7273 37.399 91.2194 37.399C91.7452 37.399 92.2193 37.5168 92.6372 37.7545C93.0574 37.9901 93.3877 38.3212 93.6348 38.7456C93.8798 39.17 94.0033 39.67 94.0033 40.2455C94.0033 40.8211 93.8798 41.3322 93.6348 41.7566C93.3877 42.181 93.0551 42.5099 92.6372 42.7432C92.217 42.9765 91.7452 43.0921 91.2194 43.0921V43.0943ZM90.9385 41.7788C91.2081 41.7788 91.4486 41.7166 91.6598 41.5944C91.871 41.4699 92.0418 41.2944 92.1698 41.0655C92.2979 40.8366 92.3631 40.5633 92.3631 40.2478C92.3631 39.9322 92.2979 39.6522 92.1698 39.4256C92.0418 39.1989 91.871 39.0256 91.6598 38.9012C91.4486 38.7767 91.2081 38.7167 90.9385 38.7167C90.6689 38.7167 90.4262 38.7789 90.2105 38.9012C89.9948 39.0234 89.8263 39.1989 89.7004 39.4256C89.5769 39.6522 89.5139 39.9256 89.5139 40.2478C89.5139 40.57 89.5769 40.8344 89.7004 41.0655C89.8263 41.2944 89.9948 41.4722 90.2105 41.5944C90.4262 41.7166 90.6689 41.7788 90.9385 41.7788Z" fill="white"/>
<path d="M97.7558 43.0943C97.1603 43.0943 96.6323 42.9721 96.1717 42.7232C95.711 42.4766 95.347 42.1388 95.0796 41.7099C94.8123 41.2811 94.6797 40.7944 94.6797 40.2455C94.6797 39.6967 94.8123 39.1989 95.0796 38.7701C95.347 38.3412 95.711 38.0056 96.1717 37.7634C96.6323 37.5212 97.1603 37.399 97.7558 37.399C98.3512 37.399 98.8702 37.5212 99.3354 37.7634C99.8005 38.0056 100.162 38.3412 100.427 38.7656C100.693 39.19 100.823 39.6833 100.823 40.2455C100.823 40.8077 100.69 41.2833 100.427 41.7099C100.164 42.1366 99.8005 42.4766 99.3354 42.7232C98.8702 42.9699 98.3445 43.0943 97.7558 43.0943ZM97.7558 41.7788C98.0254 41.7788 98.2681 41.7166 98.4838 41.5944C98.6995 41.4699 98.868 41.2944 98.9938 41.0655C99.1197 40.8366 99.1803 40.5633 99.1803 40.2478C99.1803 39.9322 99.1174 39.6522 98.9938 39.4256C98.8703 39.1989 98.6995 39.0256 98.4838 38.9012C98.2681 38.7767 98.0254 38.7167 97.7558 38.7167C97.4861 38.7167 97.2435 38.7789 97.0278 38.9012C96.812 39.0234 96.6413 39.1989 96.5132 39.4256C96.3851 39.6522 96.32 39.9256 96.32 40.2478C96.32 40.57 96.3829 40.8344 96.5132 41.0655C96.6413 41.2944 96.812 41.4722 97.0278 41.5944C97.2435 41.7166 97.4861 41.7788 97.7558 41.7788Z" fill="white"/>
<path d="M101.933 43.0121V37.4834H103.544V40.7722L106.267 37.4834H107.752V43.0121H106.141V39.7233L103.429 43.0121H101.933Z" fill="white"/>
<path d="M109.312 43.0121V37.4834H110.923V39.6411H113.354V37.4834H114.974V43.0121H113.354V40.9455H110.923V43.0121H109.312Z" fill="white"/>
<path d="M115.85 44.2032V41.6944H122.793V44.2032H121.286V43.0099H117.358V44.2032H115.85ZM117.639 41.921L116.039 41.6944C116.239 41.6944 116.403 41.6344 116.527 41.5144C116.652 41.3944 116.749 41.2255 116.817 41.01C116.886 40.7944 116.938 40.5478 116.972 40.27C117.005 39.9922 117.03 39.6989 117.043 39.39L117.115 37.479H121.989V42.2899H120.367V38.7945H118.538L118.506 39.5034C118.493 39.7989 118.475 40.0789 118.455 40.3455C118.434 40.6122 118.394 40.8544 118.335 41.07C118.277 41.2855 118.192 41.4677 118.082 41.6144C117.971 41.761 117.821 41.8633 117.634 41.9166L117.639 41.921Z" fill="white"/>
<path d="M124.569 45.0876C124.279 45.0876 123.989 45.0431 123.706 44.9542C123.423 44.8654 123.189 44.7409 123.009 44.5831L123.602 43.4432C123.726 43.5521 123.87 43.6387 124.034 43.701C124.196 43.7632 124.357 43.7943 124.517 43.7943C124.746 43.7943 124.928 43.741 125.063 43.6343C125.198 43.5276 125.321 43.3521 125.431 43.1054L125.721 42.4277L125.847 42.2521L127.854 37.4834H129.413L126.888 43.3521C126.708 43.7965 126.501 44.1476 126.27 44.4009C126.038 44.6543 125.782 44.832 125.501 44.9365C125.22 45.0409 124.91 45.0898 124.571 45.0898L124.569 45.0876ZM125.524 43.2276L123.029 37.4812H124.703L126.636 42.1055L125.524 43.2254V43.2276Z" fill="white"/>
<path d="M132.696 43.0943C132.094 43.0943 131.557 42.9721 131.085 42.7299C130.613 42.4877 130.244 42.1499 129.977 41.7166C129.71 41.2855 129.577 40.7944 129.577 40.2478C129.577 39.7011 129.71 39.2012 129.977 38.7723C130.244 38.3434 130.613 38.0079 131.085 37.7657C131.557 37.5234 132.094 37.4012 132.696 37.4012C133.298 37.4012 133.797 37.5234 134.235 37.7657C134.673 38.0079 134.995 38.3567 135.201 38.8078L133.943 39.4767C133.797 39.2167 133.615 39.0234 133.397 38.9012C133.179 38.7767 132.941 38.7167 132.685 38.7167C132.408 38.7167 132.159 38.7789 131.936 38.9012C131.714 39.0234 131.539 39.1989 131.411 39.4256C131.283 39.6522 131.217 39.9256 131.217 40.2478C131.217 40.57 131.28 40.8433 131.411 41.07C131.539 41.2966 131.714 41.4699 131.936 41.5944C132.159 41.7166 132.408 41.7788 132.685 41.7788C132.941 41.7788 133.179 41.7188 133.397 41.5988C133.615 41.4788 133.797 41.2855 133.943 41.0188L135.201 41.6966C134.995 42.141 134.671 42.4855 134.235 42.7299C133.799 42.9743 133.287 43.0943 132.696 43.0943Z" fill="white"/>
<path d="M137.363 43.0121V38.4278L137.727 38.7989H135.471V37.4834H140.866V38.7989H138.61L138.974 38.4278V43.0121H137.363Z" fill="white"/>
<path d="M141.717 45.0053V37.4812H143.265V38.6123L143.234 40.2567L143.337 41.8899V45.0053H141.715H141.717ZM145.023 43.0943C144.551 43.0943 144.14 42.9921 143.787 42.7854C143.434 42.581 143.158 42.2655 142.96 41.8455C142.762 41.4255 142.663 40.8922 142.663 40.2478C142.663 39.6034 142.758 39.0634 142.944 38.6434C143.131 38.2256 143.403 37.9145 143.755 37.7079C144.108 37.5034 144.531 37.399 145.023 37.399C145.548 37.399 146.022 37.5168 146.44 37.7545C146.861 37.9901 147.191 38.3212 147.438 38.7456C147.683 39.17 147.807 39.67 147.807 40.2455C147.807 40.8211 147.683 41.3322 147.438 41.7566C147.191 42.181 146.858 42.5099 146.44 42.7432C146.02 42.9765 145.548 43.0921 145.023 43.0921V43.0943ZM144.742 41.7788C145.011 41.7788 145.252 41.7166 145.463 41.5944C145.674 41.4699 145.845 41.2944 145.973 41.0655C146.101 40.8366 146.166 40.5633 146.166 40.2478C146.166 39.9322 146.101 39.6522 145.973 39.4256C145.845 39.1989 145.674 39.0256 145.463 38.9012C145.252 38.7767 145.011 38.7167 144.742 38.7167C144.472 38.7167 144.229 38.7789 144.014 38.9012C143.798 39.0234 143.629 39.1989 143.504 39.4256C143.38 39.6522 143.317 39.9256 143.317 40.2478C143.317 40.57 143.38 40.8344 143.504 41.0655C143.629 41.2944 143.798 41.4722 144.014 41.5944C144.229 41.7166 144.472 41.7788 144.742 41.7788Z" fill="white"/>
<path d="M148.939 43.0121V37.4834H150.55V40.7722L153.273 37.4834H154.759V43.0121H153.148V39.7233L150.435 43.0121H148.939Z" fill="white"/>
<path d="M156.318 43.0121V37.4834H157.929V40.7722L160.652 37.4834H162.138V43.0121H160.527V39.7233L157.815 43.0121H156.318Z" fill="white"/>
<path d="M68.1769 55.4693C67.6152 55.4693 67.0939 55.3782 66.6131 55.196C66.1322 55.0138 65.7143 54.756 65.3615 54.4205C65.0087 54.085 64.7324 53.6916 64.5346 53.2383C64.3369 52.785 64.238 52.2895 64.238 51.7473C64.238 51.2051 64.3369 50.7095 64.5346 50.2562C64.7324 49.8029 65.0087 49.4096 65.366 49.0741C65.7233 48.7385 66.1412 48.4808 66.6176 48.2985C67.0962 48.1163 67.6197 48.0252 68.1859 48.0252C68.8173 48.0252 69.3858 48.1341 69.8959 48.3496C70.4059 48.5652 70.8328 48.883 71.1789 49.3007L70.0981 50.2873C69.8487 50.0074 69.5723 49.7963 69.2667 49.6563C68.9611 49.5163 68.6286 49.4452 68.2691 49.4452C67.9298 49.4452 67.6174 49.5007 67.3343 49.6096C67.049 49.7185 66.8041 49.8762 66.5973 50.0829C66.3884 50.2873 66.2288 50.5318 66.1142 50.8118C65.9996 51.0918 65.9435 51.4051 65.9435 51.7473C65.9435 52.0895 65.9996 52.4006 66.1142 52.6828C66.2288 52.965 66.3906 53.2072 66.5973 53.4117C66.8041 53.6161 67.0512 53.7739 67.3343 53.885C67.6174 53.9939 67.9298 54.0494 68.2691 54.0494C68.6286 54.0494 68.9611 53.9783 69.2667 53.8383C69.5723 53.6983 69.8487 53.4828 70.0981 53.1961L71.1789 54.1827C70.8328 54.6005 70.4037 54.9205 69.8959 55.1382C69.3858 55.3582 68.8128 55.4671 68.1747 55.4671L68.1769 55.4693Z" fill="white"/>
<path d="M73.7584 55.4271C73.3225 55.4271 72.9472 55.3538 72.6349 55.2071C72.3226 55.0605 72.0844 54.8583 71.9181 54.6049C71.7518 54.3516 71.6687 54.0672 71.6687 53.7516C71.6687 53.4361 71.7496 53.1339 71.9136 52.8872C72.0754 52.6406 72.3338 52.4473 72.6888 52.3073C73.0416 52.1673 73.5022 52.0962 74.0707 52.0962H75.5559V53.0317H74.246C73.864 53.0317 73.6033 53.0939 73.4618 53.2161C73.3202 53.3383 73.2483 53.4939 73.2483 53.6783C73.2483 53.8827 73.3292 54.0472 73.4932 54.1672C73.655 54.2872 73.8797 54.3472 74.1628 54.3472C74.4459 54.3472 74.6751 54.2827 74.8908 54.1561C75.1065 54.0294 75.2616 53.8427 75.3582 53.5961L75.6076 54.3361C75.4908 54.6916 75.2751 54.9627 74.9627 55.1471C74.6504 55.3316 74.2482 55.4249 73.7561 55.4249L73.7584 55.4271ZM75.4616 55.3449V54.2649L75.3582 54.0294V52.0962C75.3582 51.7539 75.2526 51.4873 75.0414 51.294C74.8302 51.1006 74.5066 51.0073 74.0707 51.0073C73.7718 51.0073 73.4797 51.054 73.1921 51.1451C72.9045 51.2362 72.6596 51.3629 72.4596 51.5206L71.8777 50.4007C72.1833 50.1873 72.5495 50.0229 72.9787 49.9074C73.4078 49.7918 73.8437 49.7318 74.2886 49.7318C75.1402 49.7318 75.8031 49.9318 76.2727 50.3273C76.7446 50.7251 76.9782 51.3451 76.9782 52.1873V55.3427H75.4616V55.3449Z" fill="white"/>
<path d="M78.3938 55.3449V49.8162H80.0049V51.9739H82.4361V49.8162H84.0561V55.3449H82.4361V53.2783H80.0049V55.3449H78.3938Z" fill="white"/>
<path d="M85.6064 55.3449V49.8163H87.2287V55.3449H85.6064ZM86.7501 53.2472V51.9628H88.705V53.2472H86.7501ZM89.1724 52.765L87.6557 52.6006L89.6195 49.814H91.3452L89.1724 52.765ZM89.5678 55.3449L87.6961 52.725L89.0173 51.9539L91.48 55.3449H89.5678Z" fill="white"/>
<path d="M93.4215 55.3449V50.7607L93.7855 51.1318H91.5295V49.8162H96.9245V51.1318H94.6685L95.0325 50.7607V55.3449H93.4215Z" fill="white"/>
<path d="M97.4434 53.0939V51.8095H100.385V53.0939H97.4434Z" fill="white"/>
<path d="M101.821 55.3449V48.1497H108.451V55.3449H106.777V49.1274L107.162 49.5074H103.108L103.492 49.1274V55.3449H101.818H101.821Z" fill="white"/>
<path d="M112.866 55.4271C112.228 55.4271 111.669 55.3049 111.188 55.056C110.707 54.8094 110.334 54.4716 110.071 54.0427C109.808 53.6139 109.676 53.1272 109.676 52.5784C109.676 52.0295 109.806 51.5317 110.065 51.1029C110.323 50.674 110.68 50.3385 111.13 50.0962C111.579 49.854 112.089 49.7318 112.657 49.7318C113.226 49.7318 113.698 49.8474 114.138 50.0762C114.579 50.3051 114.927 50.634 115.183 51.0629C115.439 51.4917 115.567 52.0028 115.567 52.6006C115.567 52.6628 115.563 52.7317 115.556 52.8117C115.549 52.8895 115.543 52.965 115.536 53.0317H110.995V52.0962H114.684L114.06 52.3739C114.06 52.0873 114.001 51.8362 113.882 51.6228C113.763 51.4095 113.601 51.2451 113.394 51.1251C113.188 51.0051 112.945 50.9451 112.666 50.9451C112.388 50.9451 112.145 51.0051 111.934 51.1251C111.723 51.2451 111.559 51.4117 111.44 51.6295C111.321 51.8473 111.262 52.1006 111.262 52.3961V52.6428C111.262 52.945 111.33 53.2094 111.464 53.4383C111.599 53.6672 111.79 53.8427 112.035 53.9627C112.28 54.0827 112.57 54.1427 112.902 54.1427C113.201 54.1427 113.462 54.0983 113.687 54.0094C113.911 53.9205 114.118 53.7872 114.304 53.6094L115.167 54.5338C114.911 54.8205 114.588 55.0427 114.201 55.196C113.812 55.3493 113.365 55.4271 112.86 55.4271H112.866Z" fill="white"/>
<path d="M117.814 55.3449V50.7607L118.178 51.1318H115.922V49.8162H121.317V51.1318H119.061L119.425 50.7607V55.3449H117.814Z" fill="white"/>
<path d="M124.683 55.4271C124.045 55.4271 123.485 55.3049 123.005 55.056C122.524 54.8094 122.151 54.4716 121.888 54.0427C121.625 53.6139 121.492 53.1272 121.492 52.5784C121.492 52.0295 121.623 51.5317 121.881 51.1029C122.14 50.674 122.497 50.3385 122.946 50.0962C123.396 49.854 123.906 49.7318 124.474 49.7318C125.043 49.7318 125.514 49.8474 125.955 50.0762C126.395 50.3051 126.744 50.634 127 51.0629C127.256 51.4917 127.384 52.0028 127.384 52.6006C127.384 52.6628 127.379 52.7317 127.373 52.8117C127.366 52.8895 127.359 52.965 127.352 53.0317H122.811V52.0962H126.501L125.876 52.3739C125.876 52.0873 125.818 51.8362 125.699 51.6228C125.58 51.4095 125.418 51.2451 125.211 51.1251C125.004 51.0051 124.762 50.9451 124.483 50.9451C124.204 50.9451 123.962 51.0051 123.751 51.1251C123.539 51.2451 123.375 51.4117 123.256 51.6295C123.137 51.8473 123.079 52.1006 123.079 52.3961V52.6428C123.079 52.945 123.146 53.2094 123.281 53.4383C123.416 53.6672 123.607 53.8427 123.852 53.9627C124.097 54.0827 124.386 54.1427 124.719 54.1427C125.018 54.1427 125.279 54.0983 125.503 54.0094C125.728 53.9205 125.935 53.7872 126.121 53.6094L126.984 54.5338C126.728 54.8205 126.404 55.0427 126.018 55.196C125.629 55.3493 125.182 55.4271 124.676 55.4271H124.683Z" fill="white"/>
<path d="M128.622 57.3382V49.814H130.17V50.9451L130.139 52.5895L130.242 54.2227V57.3382H128.62H128.622ZM131.927 55.4271C131.456 55.4271 131.044 55.3249 130.692 55.1182C130.339 54.9138 130.062 54.5983 129.865 54.1783C129.667 53.7583 129.568 53.225 129.568 52.5806C129.568 51.9362 129.662 51.3962 129.849 50.9762C130.035 50.5584 130.307 50.2473 130.66 50.0407C131.013 49.8363 131.435 49.7318 131.927 49.7318C132.453 49.7318 132.927 49.8496 133.345 50.0873C133.765 50.3229 134.096 50.654 134.343 51.0784C134.588 51.5028 134.711 52.0028 134.711 52.5784C134.711 53.1539 134.588 53.665 134.343 54.0894C134.096 54.5138 133.763 54.8427 133.345 55.076C132.925 55.3094 132.453 55.4249 131.927 55.4249V55.4271ZM131.647 54.1116C131.916 54.1116 132.157 54.0494 132.368 53.9272C132.579 53.8027 132.75 53.6272 132.878 53.3983C133.006 53.1694 133.071 52.8961 133.071 52.5806C133.071 52.265 133.006 51.985 132.878 51.7584C132.75 51.5317 132.579 51.3584 132.368 51.234C132.157 51.1095 131.916 51.0495 131.647 51.0495C131.377 51.0495 131.134 51.1118 130.919 51.234C130.703 51.3562 130.534 51.5317 130.408 51.7584C130.285 51.985 130.222 52.2584 130.222 52.5806C130.222 52.9028 130.285 53.1672 130.408 53.3983C130.534 53.6272 130.703 53.805 130.919 53.9272C131.134 54.0494 131.377 54.1116 131.647 54.1116Z" fill="white"/>
<path d="M138.621 55.4693C138.163 55.4693 137.749 55.4027 137.374 55.2694C136.999 55.136 136.675 54.9271 136.401 54.6427C136.127 54.3583 135.916 53.9939 135.767 53.5472C135.619 53.1028 135.545 52.5717 135.545 51.9539C135.545 51.5162 135.583 51.114 135.66 50.7518C135.736 50.3896 135.851 50.0585 136.003 49.7607C136.156 49.4629 136.352 49.1985 136.59 48.9696C136.828 48.7407 137.109 48.5474 137.432 48.3941C137.754 48.2408 138.12 48.1208 138.529 48.0385L141.189 47.5141L141.407 48.8918L139.059 49.3541C138.92 49.3807 138.763 49.4185 138.587 49.4629C138.41 49.5074 138.235 49.574 138.057 49.6629C137.88 49.7518 137.718 49.8762 137.569 50.0385C137.421 50.2007 137.3 50.4096 137.21 50.6651C137.12 50.9229 137.075 51.2384 137.075 51.6162C137.075 51.7317 137.08 51.8206 137.091 51.8828C137.102 51.945 137.111 52.0095 137.122 52.0784C137.134 52.1473 137.138 52.2539 137.138 52.3961L136.619 51.8917C136.772 51.5695 136.967 51.2962 137.205 51.0695C137.444 50.8429 137.722 50.6695 138.037 50.5496C138.351 50.4296 138.704 50.3696 139.093 50.3696C139.619 50.3696 140.082 50.474 140.479 50.6829C140.877 50.8918 141.187 51.1851 141.409 51.5606C141.632 51.9384 141.742 52.365 141.742 52.845C141.742 53.365 141.609 53.8227 141.347 54.2161C141.084 54.6094 140.717 54.916 140.25 55.136C139.783 55.356 139.239 55.4649 138.623 55.4649L138.621 55.4693ZM138.704 54.225C138.974 54.225 139.214 54.165 139.421 54.045C139.63 53.925 139.789 53.765 139.904 53.5628C140.019 53.3605 140.075 53.1339 140.075 52.8783C140.075 52.6228 140.019 52.4117 139.904 52.2206C139.789 52.0295 139.628 51.8784 139.421 51.7673C139.214 51.6584 138.972 51.6028 138.693 51.6028C138.414 51.6028 138.181 51.6562 137.965 51.7628C137.749 51.8695 137.583 52.0139 137.466 52.2006C137.349 52.385 137.289 52.6006 137.289 52.8472C137.289 53.0939 137.349 53.3317 137.471 53.5405C137.592 53.7494 137.758 53.9161 137.969 54.0383C138.181 54.1605 138.426 54.2227 138.702 54.2227L138.704 54.225Z" fill="white"/>
<path d="M143.443 57.4204C143.153 57.4204 142.863 57.3759 142.58 57.287C142.297 57.1982 142.063 57.0737 141.884 56.9159L142.477 55.776C142.6 55.8849 142.744 55.9715 142.908 56.0338C143.07 56.096 143.232 56.1271 143.391 56.1271C143.62 56.1271 143.802 56.0738 143.937 55.9671C144.072 55.8604 144.196 55.6849 144.306 55.4382L144.596 54.7605L144.721 54.5849L146.728 49.8163H148.287L145.762 55.6849C145.582 56.1293 145.375 56.4804 145.144 56.7337C144.912 56.9871 144.656 57.1648 144.375 57.2693C144.095 57.3737 143.784 57.4226 143.445 57.4226L143.443 57.4204ZM144.398 55.5605L141.904 49.814H143.578L145.51 54.4383L144.398 55.5582V55.5605Z" fill="white"/>
<path d="M149.056 57.3382V49.814H150.604V50.9451L150.573 52.5895L150.676 54.2227V57.3382H149.054H149.056ZM152.361 55.4271C151.889 55.4271 151.478 55.3249 151.125 55.1182C150.773 54.9138 150.496 54.5983 150.299 54.1783C150.101 53.7583 150.002 53.225 150.002 52.5806C150.002 51.9362 150.096 51.3962 150.283 50.9762C150.469 50.5584 150.741 50.2473 151.094 50.0407C151.447 49.8363 151.869 49.7318 152.361 49.7318C152.887 49.7318 153.361 49.8496 153.779 50.0873C154.199 50.3229 154.53 50.654 154.777 51.0784C155.022 51.5028 155.145 52.0028 155.145 52.5784C155.145 53.1539 155.022 53.665 154.777 54.0894C154.53 54.5138 154.197 54.8427 153.779 55.076C153.359 55.3094 152.887 55.4249 152.361 55.4249V55.4271ZM152.08 54.1116C152.35 54.1116 152.59 54.0494 152.802 53.9272C153.013 53.8027 153.184 53.6272 153.312 53.3983C153.44 53.1694 153.505 52.8961 153.505 52.5806C153.505 52.265 153.44 51.985 153.312 51.7584C153.184 51.5317 153.013 51.3584 152.802 51.234C152.59 51.1095 152.35 51.0495 152.08 51.0495C151.811 51.0495 151.568 51.1118 151.352 51.234C151.137 51.3562 150.968 51.5317 150.842 51.7584C150.719 51.985 150.656 52.2584 150.656 52.5806C150.656 52.9028 150.719 53.1672 150.842 53.3983C150.968 53.6272 151.137 53.805 151.352 53.9272C151.568 54.0494 151.811 54.1116 152.08 54.1116Z" fill="white"/>
<path d="M156.278 55.3449V49.8162H160.758V51.1318H157.527L157.891 50.7829V55.3471H156.28L156.278 55.3449Z" fill="white"/>
<path d="M163.261 55.4271C162.825 55.4271 162.45 55.3538 162.138 55.2071C161.825 55.0605 161.587 54.8583 161.421 54.6049C161.255 54.3516 161.171 54.0672 161.171 53.7516C161.171 53.4361 161.252 53.1339 161.416 52.8872C161.578 52.6406 161.836 52.4473 162.192 52.3073C162.544 52.1673 163.005 52.0962 163.573 52.0962H165.059V53.0317H163.749C163.367 53.0317 163.106 53.0939 162.964 53.2161C162.823 53.3383 162.751 53.4939 162.751 53.6783C162.751 53.8827 162.832 54.0472 162.996 54.1672C163.158 54.2872 163.382 54.3472 163.666 54.3472C163.949 54.3472 164.178 54.2827 164.394 54.1561C164.609 54.0294 164.764 53.8427 164.861 53.5961L165.11 54.3361C164.993 54.6916 164.778 54.9627 164.465 55.1471C164.153 55.3316 163.751 55.4249 163.259 55.4249L163.261 55.4271ZM164.964 55.3449V54.2649L164.861 54.0294V52.0962C164.861 51.7539 164.755 51.4873 164.544 51.294C164.333 51.1006 164.009 51.0073 163.573 51.0073C163.275 51.0073 162.982 51.054 162.695 51.1451C162.407 51.2362 162.162 51.3629 161.962 51.5206L161.38 50.4007C161.686 50.1873 162.052 50.0229 162.481 49.9074C162.911 49.7918 163.346 49.7318 163.791 49.7318C164.643 49.7318 165.306 49.9318 165.775 50.3273C166.247 50.7251 166.481 51.3451 166.481 52.1873V55.3427H164.964V55.3449Z" fill="white"/>
<path d="M3.92309 31.2816C2.72097 31.286 1.91657 30.0639 2.40191 28.975C7.05983 18.4888 18.8294 11.8958 31.4168 14.6134C46.5837 17.8888 53.5088 32.3104 51.6168 43.5033C49.9788 43.5944 48.3228 43.7255 46.6668 43.7699C43.3638 43.8588 40.0608 43.9366 36.7578 43.9499C34.6636 43.9588 32.5694 43.881 30.4775 43.7855C29.2642 43.7299 28.0868 43.3255 27.1363 42.5789C26.6442 42.1945 26.0982 41.8834 25.5994 41.5078C24.4669 40.659 23.1862 40.3123 21.7796 40.3568C17.0677 40.5056 11.7807 40.6456 7.06882 40.7945C6.94299 40.799 6.77896 40.7723 6.70032 40.839C6.63067 40.899 6.56326 40.9612 6.4981 41.0256C6.17678 41.3412 6.25992 41.9034 6.6801 42.0722C6.72728 42.09 6.77447 42.1033 6.82166 42.1056C8.55855 42.2078 10.8707 42.23 12.6098 42.2922C14.7511 42.37 16.8925 42.4589 19.0338 42.5478C19.4675 42.5655 19.9551 42.55 19.9236 43.1833C19.8922 43.7944 19.4023 43.7655 18.9732 43.7744C15.6701 43.8411 12.3671 43.8988 9.06411 43.9655C8.43497 43.9788 7.80357 44.0188 7.17443 44.0322C6.67785 44.0433 6.4217 44.2966 6.42395 44.7721C6.42395 45.2365 6.70931 45.4143 7.16095 45.4321C9.4034 45.5165 11.6459 45.6143 13.8883 45.701C15.6275 45.7676 17.3666 45.8254 19.1035 45.8832C19.5753 45.8987 20.0247 46.0432 20.0315 46.5543C20.0382 47.1254 19.5686 47.2254 19.063 47.2365C15.2567 47.3187 11.4526 47.412 7.64629 47.5009C7.17443 47.512 6.65314 47.5431 6.61718 48.1253C6.58348 48.6875 7.06882 48.8431 7.54517 48.8986C10.4954 49.2408 13.4389 49.6297 16.3959 49.9008C18.2204 50.0674 20.0629 50.1274 21.8964 50.1075C23.6019 50.0875 25.1365 49.4808 26.4488 48.3631C27.8284 47.1876 29.4911 46.6565 31.2595 46.6565C35.0905 46.6565 38.9238 46.7631 42.7549 46.852C44.7704 46.8987 46.7859 46.9987 48.8014 47.0809C48.8082 47.0809 48.8149 47.0809 48.8216 47.0809C49.9406 47.1276 50.6933 48.2409 50.3069 49.2808C49.8687 50.4541 49.3429 51.5629 48.7273 52.634C44.903 59.2826 39.2743 63.6558 31.7201 65.3624C18.4991 68.3489 5.37462 60.5514 1.39527 48.4675C0.0223884 44.3099 -0.368581 40.0879 0.361678 35.7614C0.422345 35.397 0.730177 35.1236 1.10317 35.1059C5.23306 34.9148 9.36071 34.6881 13.4906 34.4948C16.0319 34.377 18.5777 34.3192 21.1212 34.2037C23.3188 34.1037 25.2916 34.6748 27.0846 35.9436C28.9608 37.2702 31.0528 38.1035 33.3604 38.308C36.5713 38.5902 39.6721 38.3346 42.2853 36.1747C42.7459 35.7947 43.1818 35.3614 43.5435 34.8903C44.6108 33.5015 44.5816 32.0082 43.4829 30.6327C41.9639 28.7284 39.9192 27.7906 37.5262 27.4573C33.5851 26.9084 30.0326 27.8062 26.842 30.1461C25.4534 31.1638 23.8805 31.5993 22.1706 31.5682C17.5059 31.4816 12.8412 31.3705 8.17657 31.2949C6.76548 31.2727 5.3544 31.2771 3.92085 31.2816H3.92309Z" fill="white"/>
</g>
<defs>
<clipPath id="clip0_50_4011">
<rect width="209" height="52" fill="white" transform="translate(0 14)"/>
</clipPath>
</defs>
</svg>
